<svg width="20" height="20" viewBox="0 0 20 20" fill="none" xmlns="http://www.w3.org/2000/svg">
<rect width="20" height="20" fill="black"/>
<path d="M6.80328 8.35424C8.36949 8.35424 9.50444 9.67857 9.50444 11.5172C9.50444 13.3687 8.35814 14.7059 6.76924 14.7059C5.18033 14.7059 4 13.4973 4 11.6872V9.85858V5.29413H5.13493V9.24141C5.55486 8.61139 6.11097 8.35424 6.80328 8.35424ZM6.66709 13.4973C7.64313 13.4973 8.34679 12.6615 8.34679 11.5172C8.34679 10.3857 7.64313 9.56285 6.67844 9.56285C5.7251 9.56285 5.13493 10.3986 5.13493 11.543C5.13493 12.6744 5.71375 13.4973 6.66709 13.4973Z" fill="#F78B27"/>
<path d="M13.0003 8.50853V9.66572H11.7292V12.623C11.7292 13.1887 11.9448 13.4973 12.3534 13.4973C12.5804 13.4973 12.796 13.3944 13.0003 13.1758V14.4102C12.6825 14.6159 12.3874 14.7059 12.0583 14.7059C11.0936 14.7059 10.5829 14.0244 10.5942 12.7258V9.66572H9.7998V8.50853H10.5942L11.7292 6.61847V8.50853H13.0003Z" fill="#F78B27"/>
<path d="M16.4973 8.39282C16.6562 8.39282 16.7697 8.41854 16.9626 8.49568V9.85859C16.781 9.73001 16.5994 9.67858 16.3724 9.67858C15.5212 9.67858 14.9992 10.3986 14.9992 11.4272V14.5516H13.8643V8.50854H14.9992V9.39572C15.3056 8.73998 15.8163 8.39282 16.4973 8.39282Z" fill="#F78B27"/>
</svg>
