<svg width="40" height="20" viewBox="0 0 40 20" fill="none" xmlns="http://www.w3.org/2000/svg">
<rect width="40" height="20" rx="5" fill="black"/>
<g clip-path="url(#clip0_2316_552)">
<mask id="mask0_2316_552" style="mask-type:luminance" maskUnits="userSpaceOnUse" x="2" y="12" width="5" height="3">
<path d="M6.22598 12.7185H2.60938L2.00034 15H5.61694L6.22598 12.7185Z" fill="white"/>
</mask>
<g mask="url(#mask0_2316_552)">
<path d="M5.61675 15L6.12751 12.7184H5.68026L5.30282 14.7034H3.29796L3.57997 13.579L4.42933 13.7116L4.52484 13.3538L3.24918 13.3399L2.9043 15H5.61675Z" fill="#65814F"/>
<path d="M2.60939 12.7185L2.09863 15H2.46726L2.88401 13.0151H4.92818L4.65686 14.0995L3.8075 13.9669L3.7013 14.3647L4.97696 14.3786L5.32184 12.7185H2.60939Z" fill="#65814F"/>
</g>
<mask id="mask1_2316_552" style="mask-type:luminance" maskUnits="userSpaceOnUse" x="5" y="12" width="6" height="3">
<path d="M10.0189 12.7185H6.40234L5.79331 15H9.40991L10.0189 12.7185Z" fill="white"/>
</mask>
<g mask="url(#mask1_2316_552)">
<path d="M9.40972 15L9.92047 12.7184H9.47322L9.09577 14.7034H7.09093L7.37293 13.579L8.22231 13.7116L8.31781 13.3538L7.04214 13.3399L6.69727 15H9.40972Z" fill="#65814F"/>
<path d="M6.40235 12.7185L5.8916 15H6.26023L6.67698 13.0151H8.72114L8.44981 14.0995L7.60048 13.9669L7.49427 14.3647L8.76993 14.3786L9.11481 12.7185H6.40235Z" fill="#65814F"/>
</g>
<mask id="mask2_2316_552" style="mask-type:luminance" maskUnits="userSpaceOnUse" x="9" y="12" width="5" height="3">
<path d="M13.8129 12.7185H10.1963L9.58725 15H13.2039L13.8129 12.7185Z" fill="white"/>
</mask>
<g mask="url(#mask2_2316_552)">
<path d="M13.2037 15L13.7144 12.7184H13.2672L12.8897 14.7034H10.8849L11.1669 13.579L12.0163 13.7116L12.1118 13.3538L10.8361 13.3399L10.4912 15H13.2037Z" fill="#31595D"/>
<path d="M10.1963 12.7185L9.68555 15H10.0542L10.4709 13.0151H12.5151L12.2438 14.0995L11.3944 13.9669L11.2882 14.3647L12.5639 14.3786L12.9088 12.7185H10.1963Z" fill="#31595D"/>
</g>
<mask id="mask3_2316_552" style="mask-type:luminance" maskUnits="userSpaceOnUse" x="13" y="12" width="5" height="3">
<path d="M17.6059 12.7185H13.9893L13.3802 15H16.9968L17.6059 12.7185Z" fill="white"/>
</mask>
<g mask="url(#mask3_2316_552)">
<path d="M16.9976 15L17.5084 12.7184H17.0611L16.6837 14.7034H14.6788L14.9608 13.579L15.8102 13.7116L15.9057 13.3538L14.63 13.3399L14.2852 15H16.9976Z" fill="#E1736C"/>
<path d="M13.9902 12.7185L13.4795 15H13.8481L14.2649 13.0151H16.309L16.0377 14.0995L15.1884 13.9669L15.0822 14.3647L16.3578 14.3786L16.7027 12.7185H13.9902Z" fill="#E1736C"/>
</g>
<mask id="mask4_2316_552" style="mask-type:luminance" maskUnits="userSpaceOnUse" x="17" y="12" width="5" height="3">
<path d="M21.3998 12.7185H17.7832L17.1742 15H20.7908L21.3998 12.7185Z" fill="white"/>
</mask>
<g mask="url(#mask4_2316_552)">
<path d="M20.7906 15L21.3013 12.7184H20.8541L20.4766 14.7034H18.4718L18.7538 13.579L19.6032 13.7116L19.6987 13.3538L18.423 13.3399L18.0781 15H20.7906Z" fill="#624E8A"/>
<path d="M17.7832 12.7185L17.2725 15H17.6411L18.0578 13.0151H20.102L19.8307 14.0995L18.9813 13.9669L18.8751 14.3647L20.1508 14.3786L20.4957 12.7185H17.7832Z" fill="#624E8A"/>
</g>
<mask id="mask5_2316_552" style="mask-type:luminance" maskUnits="userSpaceOnUse" x="20" y="12" width="6" height="3">
<path d="M25.1938 12.7185H21.5771L20.9681 15H24.5847L25.1938 12.7185Z" fill="white"/>
</mask>
<g mask="url(#mask5_2316_552)">
<path d="M24.5845 15L25.0953 12.7184H24.648L24.2706 14.7034H22.2657L22.5477 13.579L23.3971 13.7116L23.4926 13.3538L22.2169 13.3399L21.8721 15H24.5845Z" fill="#ECBB5A"/>
<path d="M21.5772 12.7185L21.0664 15H21.435L21.8518 13.0151H23.8959L23.6246 14.0995L22.7753 13.9669L22.6691 14.3647L23.9447 14.3786L24.2896 12.7185H21.5772Z" fill="#ECBB5A"/>
</g>
<mask id="mask6_2316_552" style="mask-type:luminance" maskUnits="userSpaceOnUse" x="24" y="12" width="5" height="3">
<path d="M28.9867 12.7185H25.3701L24.7611 15H28.3777L28.9867 12.7185Z" fill="white"/>
</mask>
<g mask="url(#mask6_2316_552)">
<path d="M28.3775 15L28.8882 12.7184H28.441L28.0635 14.7034H26.0587L26.3407 13.579L27.19 13.7116L27.2856 13.3538L26.0099 13.3399L25.665 15H28.3775Z" fill="#9F2627"/>
<path d="M25.3701 12.7185L24.8594 15H25.228L25.6448 13.0151H27.6889L27.4176 14.0995L26.5683 13.9669L26.462 14.3647L27.7377 14.3786L28.0826 12.7185H25.3701Z" fill="#9F2627"/>
</g>
<mask id="mask7_2316_552" style="mask-type:alpha" maskUnits="userSpaceOnUse" x="2" y="5" width="36" height="7">
<path d="M2.88965 10.8679L35.8086 11.6929L37.0006 5L3.86329 5.03587L2.88965 10.8679Z" fill="#D9D9D9"/>
</mask>
<g mask="url(#mask7_2316_552)">
<path d="M33.3999 11.534C32.4934 11.534 32.1056 11.1657 32.2368 10.429L32.9992 6.14478C33.1314 5.40206 33.6468 5.0307 34.5455 5.0307H35.6239C36.5226 5.0307 36.9059 5.40206 36.7737 6.14478L36.0113 10.429C35.8802 11.1657 35.3614 11.534 34.4549 11.534H33.3999ZM33.8097 10.746H34.3841C34.6811 10.746 34.8521 10.6192 34.8972 10.3656L35.6387 6.19913C35.6839 5.94551 35.5384 5.81871 35.2024 5.81871H34.6749C34.3466 5.81871 34.16 5.94551 34.1149 6.19913L33.3734 10.3656C33.3282 10.6192 33.4737 10.746 33.8097 10.746Z" fill="white"/>
<path d="M31.3942 5.81871L30.3771 11.534H29.2518L30.2689 5.81871H29.1904L29.3307 5.0307H32.6129L32.4726 5.81871H31.3942Z" fill="white"/>
<path d="M25.1684 11.534C24.2619 11.534 23.8742 11.1657 24.0053 10.429L24.7677 6.14478C24.8999 5.40206 25.4153 5.0307 26.314 5.0307H27.3925C28.2912 5.0307 28.6744 5.40206 28.5422 6.14478L27.7798 10.429C27.6487 11.1657 27.1299 11.534 26.2234 11.534H25.1684ZM25.5783 10.746H26.1527C26.4496 10.746 26.6207 10.6192 26.6658 10.3656L27.4072 6.19913C27.4524 5.94551 27.3069 5.81871 26.9709 5.81871H26.4434C26.1152 5.81871 25.9285 5.94551 25.8834 6.19913L25.1419 10.3656C25.0968 10.6192 25.2422 10.746 25.5783 10.746Z" fill="white"/>
<path d="M20.9983 8.85298L22.7218 5.0307H23.9644L22.807 11.534H21.6817L22.5565 7.27697L21.1644 10.3565H20.297L20.0011 7.27697L19.3607 11.534H18.2354L19.3927 5.0307H20.6353L20.9983 8.85298Z" fill="white"/>
<path d="M14.8265 11.534H13.7012L14.6603 6.14478C14.7924 5.40206 15.3079 5.0307 16.2065 5.0307H17.0505C17.9493 5.0307 18.3325 5.40206 18.2003 6.14478L17.2413 11.534H16.116L16.5399 9.15188H15.2504L14.8265 11.534ZM16.6801 8.36388L17.0653 6.19913C17.1105 5.94551 16.9689 5.81871 16.6407 5.81871H16.3359C16.0077 5.81871 15.821 5.94551 15.7759 6.19913L15.3907 8.36388H16.6801Z" fill="white"/>
<path d="M10.5238 11.534H9.39844L10.5558 5.0307H11.6811L10.5238 11.534ZM13.1144 11.534H11.989L11.1481 8.35482L11.1578 8.30048L12.9119 5.0307H13.9434L12.1841 8.26425L13.1144 11.534Z" fill="white"/>
<path d="M7.81841 8.17367L8.37775 5.0307H9.50304L8.3457 11.534H7.22041L7.45091 10.2388L6.77062 7.27697L6.01302 11.534H4.8877L6.04502 5.0307H7.17037L7.81841 8.17367Z" fill="white"/>
<path d="M2.71289 11.534L3.87022 5.0307H4.99554L3.83822 11.534H2.71289Z" fill="white"/>
</g>
<path d="M35.3791 13.2962L35.4154 13.0922C35.432 12.9994 35.3913 12.953 35.2933 12.953H35.2408C35.1452 12.953 35.0891 12.9994 35.0726 13.0922L35.0041 13.4775C34.9963 13.5207 35.0005 13.5498 35.0165 13.5649C35.0324 13.5801 35.0593 13.5995 35.097 13.6232L35.3872 13.7819C35.4506 13.8186 35.4944 13.8477 35.5185 13.8693C35.5454 13.8887 35.5643 13.9136 35.5753 13.9438C35.5866 13.9718 35.5849 14.0269 35.5703 14.1089L35.4822 14.6043C35.4357 14.8655 35.2772 14.9961 35.0067 14.9961H34.8003C34.5321 14.9961 34.4233 14.8536 34.474 14.5687L34.4948 14.4521H34.8306L34.8081 14.5784C34.792 14.6691 34.8341 14.7144 34.9343 14.7144H34.9938C35.0824 14.7144 35.1348 14.6691 35.151 14.5784L35.2213 14.1834C35.2289 14.1402 35.2248 14.1111 35.2088 14.096C35.1928 14.0808 35.166 14.0614 35.1283 14.0377L34.8393 13.8726C34.7755 13.838 34.7293 13.8088 34.7009 13.7851C34.6748 13.7614 34.658 13.7311 34.6506 13.6945C34.6435 13.6556 34.6453 13.606 34.6561 13.5455L34.7408 13.0696C34.7881 12.804 34.9458 12.6713 35.214 12.6713H35.4239C35.6921 12.6713 35.8026 12.804 35.7553 13.0696L35.715 13.2962H35.3791Z" fill="white"/>
<path d="M33.5251 12.6713H34.1827C34.4393 12.6713 34.5439 12.804 34.4967 13.0696L34.3947 13.6426C34.3586 13.8456 34.2692 13.974 34.1267 14.028L34.1888 14.9961H33.8705L33.8172 14.0571H33.6143L33.4472 14.9961H33.1113L33.5251 12.6713ZM33.6615 13.7916H33.8819C33.9822 13.7916 34.0423 13.7355 34.0623 13.6232L34.1516 13.1213C34.1716 13.0091 34.1315 12.953 34.0312 12.953H33.8108L33.6615 13.7916Z" fill="white"/>
<path d="M33.2087 12.6713L32.8734 14.5557C32.8211 14.8493 32.6597 14.9961 32.3892 14.9961H32.1058C31.8376 14.9961 31.7299 14.8482 31.7825 14.5525L32.1172 12.6713H32.4531L32.1166 14.5622C32.0985 14.6637 32.1385 14.7144 32.2364 14.7144H32.3729C32.4638 14.7144 32.5183 14.6637 32.5364 14.5622L32.8729 12.6713H33.2087Z" fill="white"/>
<path d="M30.6848 14.9961C30.4142 14.9961 30.3024 14.8644 30.3493 14.6011L30.6218 13.0696C30.669 12.804 30.8268 12.6713 31.095 12.6713H31.4168C31.685 12.6713 31.7955 12.804 31.7483 13.0696L31.4757 14.6011C31.4288 14.8644 31.2701 14.9961 30.9996 14.9961H30.6848ZM30.8153 14.7144H30.9868C31.0754 14.7144 31.1278 14.6691 31.1439 14.5784L31.409 13.089C31.4251 12.9983 31.383 12.953 31.2827 12.953H31.1253C31.0273 12.953 30.9703 12.9983 30.9542 13.089L30.6891 14.5784C30.673 14.6691 30.715 14.7144 30.8153 14.7144Z" fill="white"/>
<path d="M30.1457 12.953L29.7822 14.9961H29.4463L29.8099 12.953H29.4881L29.5382 12.6713H30.5177L30.4676 12.953H30.1457Z" fill="white"/>
</g>
<defs>
<clipPath id="clip0_2316_552">
<rect width="35" height="10" fill="white" transform="translate(2 5)"/>
</clipPath>
</defs>
</svg>

