<svg width="160" height="160" viewBox="0 0 160 160" fill="none" xmlns="http://www.w3.org/2000/svg">
<g filter="url(#filter0_d_2316_451)">
<g clip-path="url(#clip0_2316_451)">
<path d="M55.3574 119.646C49.4103 119.376 46.1797 118.386 44.031 117.548C41.1838 116.44 39.1539 115.12 37.017 112.986C34.8801 110.852 33.5575 108.822 32.4549 105.975C31.6168 103.826 30.6271 100.596 30.3566 94.6486C30.0594 88.22 30 86.2912 30 70.0045C30 53.7177 30.0654 51.7918 30.3537 45.3574C30.6241 39.4103 31.6198 36.1857 32.4519 34.031C33.5605 31.1838 34.8831 29.1539 37.014 27.014C39.1479 24.8801 41.1778 23.5546 44.028 22.4519C46.1768 21.6138 49.4074 20.6241 55.3544 20.3537C61.7859 20.0594 63.7177 20 79.9985 20C96.2853 20 98.2111 20.0654 104.646 20.3537C110.593 20.6241 113.817 21.6198 115.972 22.4519C118.819 23.5546 120.849 24.8801 122.986 27.014C125.123 29.1479 126.44 31.1808 127.548 34.028C128.386 36.1768 129.376 39.4074 129.646 45.3544C129.941 51.7889 130 53.7147 130 70.0015C130 86.2823 129.941 88.2141 129.646 94.6486C129.376 100.596 128.38 103.826 127.548 105.975C126.44 108.822 125.12 110.852 122.986 112.986C120.852 115.12 118.819 116.44 115.972 117.548C113.823 118.386 110.593 119.376 104.646 119.646C98.2171 119.941 96.2853 120 79.9985 120C63.7177 120 61.7859 119.944 55.3574 119.646" fill="white"/>
<path d="M105 63.472C105 50.5319 93.8214 40 80.0868 40H50V53.7814H80.0868C85.7531 53.7814 90.3723 58.1335 90.3723 63.472C90.3723 68.8104 85.7531 73.1625 80.0868 73.1625H50V86.9439H77.5C77.5 94.1683 83.7206 100 91.3578 100H105V86.9439H80.0868C93.8214 86.9439 105 76.412 105 63.472Z" fill="#31C19E"/>
</g>
</g>
<defs>
<filter id="filter0_d_2316_451" x="0" y="0" width="160" height="160" filterUnits="userSpaceOnUse" color-interpolation-filters="sRGB">
<feFlood flood-opacity="0" result="BackgroundImageFix"/>
<feColorMatrix in="SourceAlpha" type="matrix" values="0 0 0 0 0 0 0 0 0 0 0 0 0 0 0 0 0 0 127 0" result="hardAlpha"/>
<feOffset dy="10"/>
<feGaussianBlur stdDeviation="15"/>
<feColorMatrix type="matrix" values="0 0 0 0 0 0 0 0 0 0 0 0 0 0 0 0 0 0 0.05 0"/>
<feBlend mode="normal" in2="BackgroundImageFix" result="effect1_dropShadow_2316_451"/>
<feBlend mode="normal" in="SourceGraphic" in2="effect1_dropShadow_2316_451" result="shape"/>
</filter>
<clipPath id="clip0_2316_451">
<rect x="30" y="20" width="100" height="100" rx="25" fill="white"/>
</clipPath>
</defs>
</svg>
