<svg width="200" height="100" viewBox="0 0 200 100" fill="none" xmlns="http://www.w3.org/2000/svg">
<rect width="200" height="100" rx="25" fill="black"/>
<g clip-path="url(#clip0_2316_552)">
<mask id="mask0_2316_552" style="mask-type:luminance" maskUnits="userSpaceOnUse" x="9" y="63" width="23" height="13">
<path d="M31.125 63.5925H13.042L9.99681 75.0002H28.0798L31.125 63.5925Z" fill="white"/>
</mask>
<g mask="url(#mask0_2316_552)">
<path d="M28.0838 74.9999L30.6375 63.5922H28.4013L26.5141 73.517H16.4898L17.8998 67.8951L22.1466 68.5581L22.6242 66.7689L16.2459 66.6993L14.5215 74.9999H28.0838Z" fill="#65814F"/>
<path d="M13.047 63.5925L10.4932 75.0002H12.3363L14.4201 65.0757H24.6409L23.2843 70.4973L19.0375 69.8344L18.5065 71.8236L24.8848 71.8932L26.6092 63.5925H13.047Z" fill="#65814F"/>
</g>
<mask id="mask1_2316_552" style="mask-type:luminance" maskUnits="userSpaceOnUse" x="28" y="63" width="23" height="13">
<path d="M50.0898 63.5925H32.0068L28.9617 75.0002H47.0447L50.0898 63.5925Z" fill="white"/>
</mask>
<g mask="url(#mask1_2316_552)">
<path d="M47.0486 74.9999L49.6024 63.5922H47.3661L45.4788 73.517H35.4547L36.8647 67.8951L41.1115 68.5581L41.589 66.7689L35.2107 66.6993L33.4863 74.9999H47.0486Z" fill="#65814F"/>
<path d="M32.0118 63.5925L29.458 75.0002H31.3011L33.3849 65.0757H43.6057L42.249 70.4973L38.0024 69.8344L37.4713 71.8236L43.8497 71.8932L45.574 63.5925H32.0118Z" fill="#65814F"/>
</g>
<mask id="mask2_2316_552" style="mask-type:luminance" maskUnits="userSpaceOnUse" x="47" y="63" width="23" height="13">
<path d="M69.0596 63.5925H50.9766L47.9314 75.0002H66.0144L69.0596 63.5925Z" fill="white"/>
</mask>
<g mask="url(#mask2_2316_552)">
<path d="M66.0183 74.9999L68.5721 63.5922H66.3358L64.4486 73.517H54.4244L55.8344 67.8951L60.0813 68.5581L60.5588 66.7689L54.1804 66.6993L52.4561 74.9999H66.0183Z" fill="#31595D"/>
<path d="M50.9815 63.5925L48.4277 75.0002H50.2709L52.3546 65.0757H62.5754L61.2188 70.4973L56.9721 69.8344L56.4411 71.8236L62.8194 71.8932L64.5438 63.5925H50.9815Z" fill="#31595D"/>
</g>
<mask id="mask3_2316_552" style="mask-type:luminance" maskUnits="userSpaceOnUse" x="66" y="63" width="23" height="13">
<path d="M88.0342 63.5925H69.9512L66.906 75.0002H84.989L88.0342 63.5925Z" fill="white"/>
</mask>
<g mask="url(#mask3_2316_552)">
<path d="M84.9881 74.9999L87.5418 63.5922H85.3056L83.4183 73.517H73.3941L74.8041 67.8951L79.0508 68.5581L79.5285 66.7689L73.1502 66.6993L71.4258 74.9999H84.9881Z" fill="#E1736C"/>
<path d="M69.9512 63.5925L67.3975 75.0002H69.2406L71.3243 65.0757H81.5452L80.1885 70.4973L75.9418 69.8344L75.4108 71.8236L81.7891 71.8932L83.5135 63.5925H69.9512Z" fill="#E1736C"/>
</g>
<mask id="mask4_2316_552" style="mask-type:luminance" maskUnits="userSpaceOnUse" x="85" y="63" width="22" height="13">
<path d="M106.994 63.5925H88.9111L85.866 75.0002H103.949L106.994 63.5925Z" fill="white"/>
</mask>
<g mask="url(#mask4_2316_552)">
<path d="M103.953 74.9999L106.507 63.5922H104.27L102.383 73.517H92.359L93.769 67.8951L98.0158 68.5581L98.4933 66.7689L92.115 66.6993L90.3906 74.9999H103.953Z" fill="#624E8A"/>
<path d="M88.9161 63.5925L86.3623 75.0002H88.2054L90.2892 65.0757H100.51L99.1533 70.4973L94.9067 69.8344L94.3756 71.8236L100.754 71.8932L102.478 63.5925H88.9161Z" fill="#624E8A"/>
</g>
<mask id="mask5_2316_552" style="mask-type:luminance" maskUnits="userSpaceOnUse" x="104" y="63" width="22" height="13">
<path d="M125.964 63.5925H107.881L104.836 75.0002H122.919L125.964 63.5925Z" fill="white"/>
</mask>
<g mask="url(#mask5_2316_552)">
<path d="M122.923 74.9999L125.476 63.5922H123.24L121.353 73.517H111.329L112.739 67.8951L116.985 68.5581L117.463 66.7689L111.085 66.6993L109.36 74.9999H122.923Z" fill="#ECBB5A"/>
<path d="M107.886 63.5925L105.332 75.0002H107.175L109.259 65.0757H119.48L118.123 70.4973L113.876 69.8344L113.345 71.8236L119.724 71.8932L121.448 63.5925H107.886Z" fill="#ECBB5A"/>
</g>
<mask id="mask6_2316_552" style="mask-type:luminance" maskUnits="userSpaceOnUse" x="123" y="63" width="22" height="13">
<path d="M144.929 63.5925H126.846L123.801 75.0002H141.884L144.929 63.5925Z" fill="white"/>
</mask>
<g mask="url(#mask6_2316_552)">
<path d="M141.887 74.9999L144.441 63.5922H142.205L140.318 73.517H130.294L131.704 67.8951L135.95 68.5581L136.428 66.7689L130.05 66.6993L128.325 74.9999H141.887Z" fill="#9F2627"/>
<path d="M126.851 63.5925L124.297 75.0002H126.14L128.224 65.0757H138.445L137.088 70.4973L132.841 69.8344L132.31 71.8236L138.689 71.8932L140.413 63.5925H126.851Z" fill="#9F2627"/>
</g>
<mask id="mask7_2316_552" style="mask-type:alpha" maskUnits="userSpaceOnUse" x="14" y="25" width="172" height="34">
<path d="M14.4482 54.3396L179.043 58.4646L185.003 25L19.3164 25.1794L14.4482 54.3396Z" fill="#D9D9D9"/>
</mask>
<g mask="url(#mask7_2316_552)">
<path d="M166.999 57.6701C162.467 57.6701 160.528 55.8284 161.184 52.1449L164.996 30.7239C165.657 27.0103 168.234 25.1535 172.727 25.1535H178.12C182.613 25.1535 184.529 27.0103 183.869 30.7239L180.056 52.1449C179.401 55.8284 176.807 57.6701 172.274 57.6701H166.999ZM169.049 53.7301H171.921C173.405 53.7301 174.261 53.0959 174.486 51.828L178.194 30.9956C178.419 29.7276 177.692 29.0935 176.012 29.0935H173.374C171.733 29.0935 170.8 29.7276 170.574 30.9956L166.867 51.828C166.641 53.0959 167.368 53.7301 169.049 53.7301Z" fill="white"/>
<path d="M156.971 29.0935L151.885 57.6701H146.259L151.344 29.0935H145.952L146.653 25.1535H163.064L162.363 29.0935H156.971Z" fill="white"/>
<path d="M125.842 57.6701C121.31 57.6701 119.371 55.8284 120.027 52.1449L123.839 30.7239C124.5 27.0103 127.077 25.1535 131.57 25.1535H136.962C141.456 25.1535 143.372 27.0103 142.711 30.7239L138.899 52.1449C138.244 55.8284 135.65 57.6701 131.117 57.6701H125.842ZM127.891 53.7301H130.763C132.248 53.7301 133.103 53.0959 133.329 51.828L137.036 30.9956C137.262 29.7276 136.535 29.0935 134.855 29.0935H132.217C130.576 29.0935 129.643 29.7276 129.417 30.9956L125.71 51.828C125.484 53.0959 126.211 53.7301 127.891 53.7301Z" fill="white"/>
<path d="M104.992 44.2649L113.609 25.1535H119.822L114.035 57.6701H108.408L112.782 36.3849L105.822 51.7826H101.485L100.005 36.3849L96.8034 57.6701H91.1768L96.9634 25.1535H103.176L104.992 44.2649Z" fill="white"/>
<path d="M74.1325 57.6701H68.5059L73.3013 30.7239C73.9621 27.0103 76.5394 25.1535 81.0327 25.1535H85.2527C89.7463 25.1535 91.6625 27.0103 91.0017 30.7239L86.2063 57.6701H80.5798L82.6994 45.7594H76.2521L74.1325 57.6701ZM83.4004 41.8194L85.3267 30.9956C85.5523 29.7276 84.8446 29.0935 83.2036 29.0935H81.6796C80.0386 29.0935 79.1052 29.7276 78.8796 30.9956L76.9534 41.8194H83.4004Z" fill="white"/>
<path d="M52.6189 57.6701H46.9922L52.7789 25.1535H58.4055L52.6189 57.6701ZM65.5718 57.6701H59.9451L55.7407 41.7741L55.7891 41.5024L64.5595 25.1535H69.7172L60.9203 41.3212L65.5718 57.6701Z" fill="white"/>
<path d="M39.0921 40.8683L41.8887 25.1535H47.5152L41.7285 57.6701H36.1021L37.2546 51.1939L33.8531 36.3849L30.0651 57.6701H24.4385L30.2251 25.1535H35.8519L39.0921 40.8683Z" fill="white"/>
<path d="M13.5645 57.6701L19.3511 25.1535H24.9777L19.1911 57.6701H13.5645Z" fill="white"/>
</g>
<path d="M176.896 66.4809L177.077 65.4611C177.16 64.9969 176.956 64.7649 176.467 64.7649H176.204C175.726 64.7649 175.446 64.9969 175.363 65.4611L175.02 67.3876C174.982 67.6034 175.003 67.7492 175.082 67.8247C175.162 67.9003 175.296 67.9974 175.485 68.1161L176.936 68.9094C177.253 69.093 177.472 69.2386 177.593 69.3465C177.727 69.4436 177.821 69.5678 177.876 69.7188C177.933 69.8592 177.925 70.1344 177.852 70.5444L177.411 73.0215C177.179 74.3276 176.386 74.9805 175.033 74.9805H174.001C172.66 74.9805 172.116 74.2682 172.37 72.8434L172.474 72.2607H174.153L174.041 72.8919C173.96 73.3453 174.17 73.5719 174.672 73.5719H174.969C175.412 73.5719 175.674 73.3453 175.755 72.8919L176.106 70.9169C176.145 70.7011 176.124 70.5553 176.044 70.4799C175.964 70.4042 175.83 70.3072 175.641 70.1884L174.197 69.3628C173.877 69.1901 173.647 69.0442 173.505 68.9257C173.374 68.8069 173.29 68.6557 173.253 68.4724C173.218 68.278 173.227 68.0299 173.28 67.7276L173.704 65.3478C173.94 64.0201 174.729 63.3563 176.07 63.3563H177.119C178.46 63.3563 179.013 64.0201 178.777 65.3478L178.575 66.4809H176.896Z" fill="white"/>
<path d="M167.625 63.3563H170.914C172.196 63.3563 172.72 64.0201 172.483 65.3478L171.974 68.2132C171.793 69.2278 171.346 69.8701 170.634 70.1399L170.944 74.9805H169.352L169.086 70.2855H168.071L167.236 74.9805H165.557L167.625 63.3563ZM168.308 68.958H169.41C169.911 68.958 170.212 68.6774 170.311 68.1161L170.758 65.6067C170.858 65.0455 170.657 64.7649 170.156 64.7649H169.054L168.308 68.958Z" fill="white"/>
<path d="M166.043 63.3563L164.367 72.7786C164.106 74.2465 163.299 74.9805 161.946 74.9805H160.529C159.188 74.9805 158.649 74.2411 158.912 72.7626L160.586 63.3563H162.265L160.583 72.8111C160.493 73.3184 160.692 73.5719 161.182 73.5719H161.864C162.319 73.5719 162.592 73.3184 162.682 72.8111L164.364 63.3563H166.043Z" fill="white"/>
<path d="M153.424 74.9805C152.071 74.9805 151.512 74.3222 151.746 73.0053L153.109 65.3478C153.345 64.0201 154.134 63.3563 155.475 63.3563H157.084C158.425 63.3563 158.978 64.0201 158.741 65.3478L157.379 73.0053C157.144 74.3222 156.351 74.9805 154.998 74.9805H153.424ZM154.077 73.5719H154.934C155.377 73.5719 155.639 73.3453 155.719 72.8919L157.045 65.4449C157.125 64.9915 156.915 64.7649 156.414 64.7649H155.626C155.137 64.7649 154.851 64.9915 154.771 65.4449L153.446 72.8919C153.365 73.3453 153.575 73.5719 154.077 73.5719Z" fill="white"/>
<path d="M150.729 64.7649L148.911 74.9805H147.231L149.05 64.7649H147.44L147.691 63.3563H152.589L152.338 64.7649H150.729Z" fill="white"/>
</g>
<defs>
<clipPath id="clip0_2316_552">
<rect width="175" height="50" fill="white" transform="translate(10 25)"/>
</clipPath>
</defs>
</svg>
