<svg width="20" height="20" viewBox="0 0 20 20" fill="none" xmlns="http://www.w3.org/2000/svg">
<rect width="20" height="20" rx="5" fill="black"/>
<path d="M2.77 15.028C2.77 13.74 2.76533 12.5313 2.756 11.402C2.756 10.2633 2.75133 9.232 2.742 8.308C2.742 7.384 2.73733 6.59533 2.728 5.942C2.71867 5.28867 2.70933 4.808 2.7 4.5C3.25067 4.42533 3.75 4.36933 4.198 4.332C4.65533 4.29467 5.08467 4.276 5.486 4.276C6.58733 4.276 7.53467 4.41133 8.328 4.682C9.13067 4.94333 9.74667 5.326 10.176 5.83C10.6053 6.32467 10.82 6.91733 10.82 7.608C10.82 8.336 10.582 8.98933 10.106 9.568C9.63933 10.1467 8.986 10.6087 8.146 10.954C7.31533 11.2993 6.354 11.4907 5.262 11.528C5.27133 12.1067 5.276 12.6853 5.276 13.264C5.28533 13.8427 5.29 14.412 5.29 14.972C4.97267 14.9907 4.60867 15.0047 4.198 15.014C3.79667 15.0233 3.32067 15.028 2.77 15.028ZM5.066 5.382C5.10333 5.89533 5.136 6.59533 5.164 7.482C5.20133 8.36867 5.22933 9.33933 5.248 10.394C7.236 10.1233 8.23 9.29267 8.23 7.902C8.23 7.12733 7.94533 6.516 7.376 6.068C6.80667 5.61067 6.03667 5.382 5.066 5.382ZM13.2755 15.02C13.0288 15.02 12.7488 15.0133 12.4355 15C12.1288 14.9933 11.8688 14.9867 11.6555 14.98C11.6488 14.8267 11.6421 14.5867 11.6355 14.26C11.6355 13.9267 11.6321 13.5367 11.6255 13.09C11.6255 12.6433 11.6221 12.17 11.6155 11.67C11.6155 11.1633 11.6121 10.6567 11.6055 10.15C11.6055 9.63667 11.6055 9.15 11.6055 8.69C11.6055 8.22333 11.6055 7.81667 11.6055 7.47C11.7521 7.46333 11.9288 7.45667 12.1355 7.45C12.3421 7.44333 12.5521 7.44 12.7655 7.44C12.9855 7.43333 13.1721 7.43 13.3255 7.43C13.3255 7.74333 13.3255 8.11 13.3255 8.53C13.3255 8.94333 13.3221 9.38 13.3155 9.84C13.5488 9.68667 13.7921 9.56667 14.0455 9.48C14.3055 9.39333 14.5588 9.35 14.8055 9.35C15.5921 9.35 16.1721 9.80667 16.5455 10.72C16.9188 11.6333 17.1055 13.0533 17.1055 14.98C16.9388 14.9933 16.7255 15.0033 16.4655 15.01C16.2055 15.0167 15.8455 15.02 15.3855 15.02C15.3855 11.7733 15.0355 10.15 14.3355 10.15C14.1621 10.15 13.9821 10.2367 13.7955 10.41C13.6155 10.5833 13.4555 10.8067 13.3155 11.08C13.3088 11.54 13.3021 11.9867 13.2955 12.42C13.2955 12.8467 13.2921 13.24 13.2855 13.6C13.2855 13.96 13.2821 14.2667 13.2755 14.52C13.2755 14.7667 13.2755 14.9333 13.2755 15.02Z" fill="white"/>
</svg>
